# xmcd
#
# Track frame offsets: 
#        150
#        13667
#        41485
#        58491
#        77095
#        90723
#        112363
#        130560
#        143391
#        156028
#        161882
#        171092
#        179302
#        200397
#        211262
#        223995
#        240905
#        257069
#        277905
#        288381
#
# Disc length: 4079 seconds
#
# Revision: 1
# Processed by: cddbd v1.5.2PL0 Copyright (c) Steve Scherf et al.
# Submitted via: ExactAudioCopy v0.99pb5
#
DISCID=200fed14
DTITLE=Various Artist - Cafe Siesta ~Brisa~
DYEAR=2005
DGENRE=Jazz
TTITLE0=Toots Thielemans feat. Lee Ritenour - Felicia and Bianca
TTITLE1=John Pizzarelli - S'Wonderful
TTITLE2=Richard Stoltzman - Minuet Bossa (A Lover's Concerto)
TTITLE3=Eliane Elias - Call Me
TTITLE4=Rosinha de Valenca - Summertime
TTITLE5=Diane Tell - Gilberto
TTITLE6=Paul Desmond - Embarcadero
TTITLE7=Johnny Alf - O Barquinho (Little Boat)
TTITLE8=Phill Woods, Michel Legrand and Orchestra - We've Only Just Begu
TTITLE8=n
TTITLE9=Quire - Waltz for Debby
TTITLE10=3-D - One Note Samba
TTITLE11=Mario Castro Neves and Samba S.A. - Bye Bye Blackbird
TTITLE12=Gary Burton - Chega de Saudade (No More Blues)
TTITLE13=Bob Thompson - Mmm, Nice!
TTITLE14=Matt Dennis - Relax
TTITLE15=Barney Kessel - Lison
TTITLE16=Salena Jones - All The Things You Are
TTITLE17=Larry Goldings - Once I Loved
TTITLE18=Quire - Lullaby of Birdland
TTITLE19=Harry Allen - Corcovado
EXTD=YEAR: 2005
EXTT0=
EXTT1=
EXTT2=
EXTT3=
EXTT4=
EXTT5=
EXTT6=
EXTT7=
EXTT8=
EXTT9=
EXTT10=
EXTT11=
EXTT12=
EXTT13=
EXTT14=
EXTT15=
EXTT16=
EXTT17=
EXTT18=
EXTT19=
PLAYORDER=
